<mxfile host="app.diagrams.net" modified="2024-04-12T12:07:46.675Z" agent="Mozilla/5.0 (X11; Ubuntu; Linux x86_64; rv:124.0) Gecko/20100101 Firefox/124.0" version="24.2.3" etag="7vxOsfgk4hFyQzqEvHX-" type="github">
  <diagram name="Page-1" id="x84RPOcv4YBVQ08L0JW4">
    <mxGraphModel>
      <root>
        <mxCell id="0" />
        <mxCell id="1" parent="0" />
      </root>
    </mxGraphModel>
  </diagram>
</mxfile>
